<svg xmlns="http://www.w3.org/2000/svg" viewBox="0 0 400 47.4"><path d="M35.5 39.1c-.5 0-.9.1-1.3.4-3.3 2.2-7 3.3-11 3.3-3.4 0-6.5-.8-9.2-2.4-2.7-1.6-4.9-3.8-6.5-6.7-1.7-2.9-2.5-6.3-2.5-10s.8-7 2.4-9.9c1.6-2.9 3.8-5.1 6.5-6.7 2.7-1.6 5.9-2.4 9.3-2.4 4 0 7.7 1.1 11.1 3.4.4.3.8.4 1.3.4.7 0 1.3-.3 1.8-.9.3-.5.5-1 .5-1.5 0-.8-.4-1.5-1.2-2-1.9-1.3-4-2.3-6.4-3C28 .4 25.5 0 23.1 0c-4.2 0-8.2 1-11.7 3.1C8 5.2 5.1 8 3.1 11.6 1 15.2 0 19.3 0 23.7c0 4.6 1.1 8.7 3.1 12.3 2.1 3.6 4.9 6.4 8.4 8.4s7.4 3 11.6 3c2.4 0 4.8-.4 7.3-1.1 2.5-.8 4.6-1.7 6.3-2.9.7-.4 1.1-1.1 1.1-1.9 0-.6-.2-1.1-.5-1.5-.5-.6-1.1-.9-1.8-.9zM115 11.5c-1.9-3.6-4.5-6.4-7.8-8.4s-7.2-3-11.4-3-8.1 1-11.4 3c-3.3 2-6 4.9-7.8 8.4-1.9 3.6-2.8 7.7-2.8 12.2 0 4.5 1 8.6 2.8 12.2 1.9 3.6 4.5 6.4 7.8 8.5 3.3 2 7.2 3.1 11.4 3.1s8.1-1 11.4-3.1c3.3-2 6-4.9 7.8-8.5 1.9-3.6 2.8-7.7 2.8-12.2 0-4.5-.9-8.6-2.8-12.2zM95.7 42.7c-3.3 0-6.3-.8-8.9-2.4-2.6-1.6-4.6-3.9-6.1-6.7-1.5-2.9-2.2-6.2-2.2-9.9s.7-7 2.2-9.9c1.4-2.9 3.5-5.1 6.1-6.7 2.6-1.6 5.6-2.4 8.9-2.4s6.3.8 8.9 2.4c2.6 1.6 4.6 3.9 6.1 6.7 1.5 2.9 2.2 6.2 2.2 9.9s-.7 7-2.2 9.9c-1.4 2.9-3.5 5.1-6.1 6.7-2.6 1.6-5.6 2.4-8.9 2.4zm94.6-16.8c-1.5-1.7-3.3-3-5.5-3.7 1.7-.9 3-2.1 4-3.6 1.2-1.9 1.7-4 1.7-6.4 0-3.5-1.1-6.4-3.2-8.4-2.1-2.1-5.1-3.1-8.8-3.1h-17.1c-.7 0-1.2.2-1.7.7-.4.4-.7 1-.7 1.7v41.4c0 .7.2 1.2.7 1.7.4.4 1 .7 1.7.7h17.4c4 0 7.3-1.1 10-3.2 2.7-2.2 4.1-5.5 4.1-9.8 0-3.4-.9-6-2.6-8zM164 20.6V5.3h14c2.4 0 4.3.6 5.6 1.9 1.3 1.3 2 3.1 2 5.3 0 2.6-.7 4.6-2.1 6-1.4 1.4-3.2 2.1-5.4 2.1H164zm23.9 13.1c0 2.8-.9 4.9-2.5 6.3-1.7 1.4-4 2.1-6.8 2.1H164V25.3h14.5c2.8 0 5.1.7 6.8 2 1.7 1.4 2.6 3.6 2.6 6.4zm146.9 9c-.4-.4-1-.6-1.7-.6h-20.5V3c0-.7-.2-1.2-.7-1.7-.5-.4-1-.7-1.7-.7s-1.3.2-1.8.7c-.5.4-.7 1-.7 1.7v41.4c0 .7.2 1.2.7 1.7.4.4 1 .7 1.7.7h23.1c.7 0 1.2-.2 1.7-.7.4-.4.7-1 .7-1.7-.1-.7-.4-1.2-.8-1.7zm64.5-41.4c-.4-.4-1-.6-1.7-.6h-30.8c-.7 0-1.2.2-1.7.6-.5.4-.7 1-.7 1.6 0 .7.2 1.2.7 1.7.4.4 1 .6 1.7.6h13v39.2c0 .7.2 1.2.7 1.7.4.4 1 .7 1.7.7s1.2-.2 1.7-.7c.5-.4.7-1 .7-1.7V5.2h13c.7 0 1.2-.2 1.7-.6.5-.4.7-1 .7-1.6 0-.7-.2-1.3-.7-1.7zM268.7 43.6L251.7 2c-.2-.5-.5-.8-.9-1.1-.4-.3-.9-.4-1.4-.4-1.1 0-1.9.5-2.3 1.5L230 43.8c-.1.2-.1.4-.1.7v.2c.1.6.3 1.1.6 1.5.4.4.9.6 1.7.6.7 0 1.6-.3 2.1-1.6l14.8-36.8 15.1 36.8c.2.5.5.8.9 1.1.4.3.9.4 1.4.4.6 0 1.2-.2 1.6-.6.5-.4.7-1 .7-1.7 0-.1 0-.4-.1-.8z" fill="#fff"/></svg>