<svg xmlns="http://www.w3.org/2000/svg" viewBox="0 0 400 210.5"><path d="M248.3 127c-1.4 0-2.7-.5-3.8-1.6l-96.6-96.6c-2.1-2.1-2.1-5.5 0-7.6s5.5-2.1 7.6 0l96.6 96.6c2.1 2.1 2.1 5.5 0 7.6-1 1.1-2.4 1.6-3.8 1.6zm9.1-11.2c-1.4 0-2.7-.5-3.8-1.6l-94.5-94.5c-2.1-2.1-2.1-5.5 0-7.6s5.5-2.1 7.6 0l94.5 94.5c2.1 2.1 2.1 5.5 0 7.6-1.1 1.1-2.4 1.6-3.8 1.6zm6.8-13.5c-1.4 0-2.7-.5-3.8-1.6L172.6 13c-2.1-2.1-2.1-5.5 0-7.6s5.5-2.1 7.6 0l87.7 87.7c2.1 2.1 2.1 5.5 0 7.6-1 1.1-2.4 1.6-3.7 1.6zm3.8-16.5c-1.4 0-2.7-.5-3.8-1.6l-75.1-75c-2.1-2.1-2.1-5.5 0-7.6s5.5-2.1 7.6 0l75.1 75.1c2.1 2.1 2.1 5.5 0 7.6-1.1 1-2.5 1.5-3.8 1.5zm-30.9 50.3c-1.4 0-2.7-.5-3.8-1.6L138.8 40c-2.1-2.1-2.1-5.5 0-7.6s5.5-2.1 7.6 0l94.5 94.5c2.1 2.1 2.1 5.5 0 7.6-1 1.1-2.4 1.6-3.8 1.6zm-13.5 6.8c-1.4 0-2.7-.5-3.8-1.6l-87.7-87.7c-2.1-2.1-2.1-5.5 0-7.6s5.5-2.1 7.6 0l87.7 87.7c2.1 2.1 2.1 5.5 0 7.6-1.1 1-2.4 1.6-3.8 1.6zm-16.5 3.8c-1.4 0-2.7-.5-3.8-1.6L128.2 70c-2.1-2.1-2.1-5.5 0-7.6 2.1-2.1 5.5-2.1 7.6 0l75.1 75.1c2.1 2.1 2.1 5.5 0 7.6-1 1-2.4 1.6-3.8 1.6zm54-86.3l6.9-6.9c2.1-2.1 2.1-5.5 0-7.6s-5.5-2.1-7.6 0l-6.9 6.9 7.6 7.6zm-81.9 66.7l-6.6 6.6c-2.1 2.1-2.1 5.5 0 7.6 1 1 2.4 1.6 3.8 1.6s2.7-.5 3.8-1.6l6.6-6.6-7.6-7.6zm-10.1-10.2l-10 10c-2.1 2.1-2.1 5.5 0 7.6 1 1 2.4 1.6 3.8 1.6s2.7-.5 3.8-1.6l10-10-7.6-7.6zm81.8-66.6L261.2 40c2.1-2.1 2.1-5.5 0-7.6s-5.5-2.1-7.6 0l-10.3 10.3 7.6 7.6zm-92 56.5l-11.1 11.1c-2.1 2.1-2.1 5.5 0 7.6 1 1 2.4 1.6 3.8 1.6s2.7-.5 3.8-1.6l11.1-11.1-7.6-7.6zm81.9-66.7l11.3-11.3c2.1-2.1 2.1-5.5 0-7.6s-5.5-2.1-7.6 0l-11.3 11.3 7.6 7.6zm-92 56.6l-10 10c-2.1 2.1-2.1 5.5 0 7.6 1 1 2.4 1.6 3.8 1.6s2.7-.5 3.8-1.6l10-10-7.6-7.6zM230.6 30l10.3-10.3c2.1-2.1 2.1-5.5 0-7.6s-5.5-2.1-7.6 0L223 22.4l7.6 7.6zm-10.1-10.1l6.9-6.9c2.1-2.1 2.1-5.5 0-7.6s-5.5-2.1-7.6 0l-6.9 6.9 7.6 7.6zm-81.8 66.6l-6.6 6.6c-2.1 2.1-2.1 5.5 0 7.6 1 1 2.4 1.6 3.8 1.6s2.7-.5 3.8-1.6l6.6-6.6-7.6-7.6zM35.5 202.1c-.5 0-.9.1-1.3.4-3.3 2.2-7 3.3-11 3.3-3.4 0-6.5-.8-9.2-2.4-2.7-1.6-4.9-3.8-6.5-6.7s-2.4-6.2-2.4-10c0-3.7.8-7 2.4-9.9s3.8-5.1 6.5-6.7c2.7-1.6 5.9-2.4 9.3-2.4 4 0 7.7 1.1 11.1 3.4.4.3.8.4 1.3.4.7 0 1.3-.3 1.8-.9.3-.5.5-1 .5-1.5 0-.8-.4-1.5-1.2-2-1.9-1.3-4-2.3-6.4-3-2.3-.7-4.8-1.1-7.2-1.1-4.2 0-8.2 1-11.7 3.1-3.5 2-6.3 4.9-8.4 8.5C1 178.2 0 182.3 0 186.7c0 4.6 1.1 8.7 3.1 12.3 2.1 3.6 4.9 6.4 8.4 8.4s7.4 3 11.6 3c2.4 0 4.8-.4 7.3-1.1 2.5-.8 4.6-1.7 6.3-2.9.7-.4 1.1-1.1 1.1-1.9 0-.6-.2-1.1-.5-1.5-.5-.6-1.1-.9-1.8-.9zm79.5-27.6c-1.9-3.6-4.5-6.4-7.8-8.4s-7.2-3-11.4-3-8.1 1-11.4 3-6 4.9-7.8 8.4c-1.9 3.6-2.8 7.7-2.8 12.2s1 8.6 2.8 12.2c1.9 3.6 4.5 6.4 7.8 8.5 3.3 2 7.2 3.1 11.4 3.1s8.1-1 11.4-3.1c3.3-2 6-4.9 7.8-8.5 1.9-3.6 2.8-7.7 2.8-12.2s-.9-8.6-2.8-12.2zm-19.3 31.2c-3.3 0-6.3-.8-8.9-2.4-2.6-1.6-4.6-3.9-6.1-6.7-1.5-2.9-2.2-6.2-2.2-9.9s.7-7 2.2-9.9c1.4-2.9 3.5-5.1 6.1-6.7 2.6-1.6 5.6-2.4 8.9-2.4s6.3.8 8.9 2.4c2.6 1.6 4.6 3.9 6.1 6.7 1.5 2.9 2.2 6.2 2.2 9.9s-.7 7-2.2 9.9c-1.4 2.9-3.5 5.1-6.1 6.7s-5.6 2.4-8.9 2.4zm94.6-16.8c-1.5-1.7-3.3-3-5.5-3.7 1.7-.9 3-2.1 4-3.6 1.2-1.9 1.7-4 1.7-6.4 0-3.5-1.1-6.4-3.2-8.4-2.1-2.1-5.1-3.1-8.8-3.1h-17.1c-.7 0-1.2.2-1.7.7-.4.4-.7 1-.7 1.7v41.4c0 .7.2 1.2.7 1.7.4.4 1 .7 1.7.7h17.4c4 0 7.3-1.1 10-3.2 2.7-2.2 4.1-5.5 4.1-9.8 0-3.4-.9-6-2.6-8zm-26.3-5.3v-15.3h14c2.4 0 4.3.6 5.6 1.9 1.3 1.3 2 3.1 2 5.3 0 2.6-.7 4.6-2.1 6-1.4 1.4-3.2 2.1-5.4 2.1H164zm23.9 13.1c0 2.8-.9 4.9-2.5 6.3-1.7 1.4-4 2.1-6.8 2.1H164v-16.8h14.5c2.8 0 5.1.7 6.8 2 1.7 1.4 2.6 3.6 2.6 6.4zm146.9 9c-.4-.4-1-.6-1.7-.6h-20.5V166c0-.7-.2-1.2-.7-1.7-.5-.4-1-.7-1.7-.7s-1.3.2-1.8.7c-.5.4-.7 1-.7 1.7v41.4c0 .7.2 1.2.7 1.7.4.4 1 .7 1.7.7h23.1c.7 0 1.2-.2 1.7-.7.4-.4.7-1 .7-1.7-.1-.7-.4-1.2-.8-1.7zm64.5-41.4c-.4-.4-1-.6-1.7-.6h-30.8c-.7 0-1.2.2-1.7.6-.5.4-.7 1-.7 1.6 0 .7.2 1.2.7 1.7.4.4 1 .6 1.7.6h13v39.2c0 .7.2 1.2.7 1.7.4.4 1 .7 1.7.7s1.2-.2 1.7-.7c.5-.4.7-1 .7-1.7v-39.2h13c.7 0 1.2-.2 1.7-.6.5-.4.7-1 .7-1.6 0-.7-.2-1.3-.7-1.7zm-130.6 42.3l-17-41.6c-.2-.5-.5-.8-.9-1.1s-.9-.4-1.4-.4c-1.1 0-1.9.5-2.3 1.5L230 206.8c-.1.2-.1.4-.1.7v.2c.1.6.3 1.1.6 1.5.4.4.9.6 1.7.6.7 0 1.6-.3 2.1-1.6l14.8-36.8 15.1 36.8c.2.5.5.8.9 1.1s.9.4 1.4.4c.6 0 1.2-.2 1.6-.6.5-.4.7-1 .7-1.7 0-.1 0-.4-.1-.8z" fill="#0047ba"/></svg>