<svg xmlns="http://www.w3.org/2000/svg" viewBox="0 0 200 200"><path d="M165.9 173.2c-1.9 0-3.7-.7-5.2-2.1L28.9 39.3c-2.9-2.9-2.9-7.5 0-10.4 2.9-2.9 7.5-2.9 10.4 0l131.8 131.8c2.9 2.9 2.9 7.5 0 10.4-1.5 1.4-3.3 2.1-5.2 2.1zm12.4-15.3c-1.9 0-3.7-.7-5.2-2.1L44.2 26.9c-2.9-2.9-2.9-7.5 0-10.4 2.9-2.9 7.5-2.9 10.4 0l128.9 128.9c2.9 2.9 2.9 7.5 0 10.4-1.5 1.4-3.4 2.1-5.2 2.1zm9.2-18.4c-1.9 0-3.7-.7-5.2-2.1L62.7 17.7c-2.9-2.9-2.9-7.5 0-10.4 2.9-2.9 7.5-2.9 10.4 0L192.7 127c2.9 2.9 2.9 7.5 0 10.4-1.5 1.4-3.3 2.1-5.2 2.1zm5.2-22.5c-1.9 0-3.7-.7-5.2-2.1L85.1 12.5c-2.9-2.9-2.9-7.5 0-10.4 2.9-2.9 7.5-2.9 10.4 0l102.4 102.4c2.9 2.9 2.9 7.5 0 10.4-1.5 1.4-3.3 2.1-5.2 2.1zm-42.1 68.6c-1.9 0-3.7-.7-5.2-2.1L16.6 54.6c-2.9-2.9-2.9-7.5 0-10.4 2.9-2.9 7.5-2.9 10.4 0l128.9 128.9c2.9 2.9 2.9 7.5 0 10.3-1.5 1.5-3.4 2.2-5.3 2.2zm-18.4 9.2c-1.9 0-3.7-.7-5.2-2.1L7.3 73c-2.9-2.9-2.9-7.5 0-10.4 2.9-2.9 7.5-2.9 10.4 0l119.7 119.7c2.9 2.9 2.9 7.5 0 10.3-1.5 1.5-3.4 2.2-5.2 2.2zm-22.5 5.2c-1.9 0-3.7-.7-5.2-2.1L2.1 95.5c-2.9-2.9-2.9-7.5 0-10.4 2.9-2.9 7.5-2.9 10.4 0l102.4 102.4c2.9 2.9 2.9 7.5 0 10.3-1.4 1.5-3.3 2.2-5.2 2.2zm73.6-117.6l9.4-9.4c2.9-2.9 2.9-7.5 0-10.4-2.9-2.9-7.5-2.9-10.3 0L173 72l10.3 10.4zM71.7 173.3l-9 9c-2.9 2.9-2.9 7.5 0 10.3 1.4 1.4 3.3 2.1 5.2 2.1 1.9 0 3.7-.7 5.2-2.1l9-9-10.4-10.3zm-13.9-13.8l-13.6 13.6c-2.9 2.9-2.9 7.5 0 10.3 1.4 1.4 3.3 2.1 5.2 2.1 1.9 0 3.7-.7 5.2-2.1l13.6-13.6-10.4-10.3zm111.6-90.9l14-14c2.9-2.9 2.9-7.5 0-10.4-2.9-2.9-7.5-2.9-10.3 0l-14 14 10.3 10.4zM44 145.6l-15.1 15.1c-2.9 2.9-2.9 7.5 0 10.4 1.4 1.4 3.3 2.1 5.2 2.1s3.7-.7 5.2-2.1L54.4 156 44 145.6zm111.6-90.9l15.5-15.5c2.9-2.9 2.9-7.5 0-10.4-2.9-2.9-7.5-2.9-10.3 0l-15.5 15.5 10.3 10.4zM30.2 131.8l-13.6 13.6c-2.9 2.9-2.9 7.5 0 10.4 1.4 1.4 3.3 2.1 5.2 2.1 1.9 0 3.7-.7 5.2-2.1l13.6-13.6-10.4-10.4zm111.6-90.9l14-14c2.9-2.9 2.9-7.5 0-10.4-2.9-2.9-7.5-2.9-10.3 0l-14 14 10.3 10.4zM128 27.1l9.4-9.4c2.9-2.9 2.9-7.5 0-10.4-2.9-2.9-7.5-2.9-10.3 0l-9.4 9.4L128 27.1zM16.4 118l-9 9c-2.9 2.9-2.9 7.5 0 10.4 1.4 1.4 3.3 2.1 5.2 2.1s3.7-.7 5.2-2.1l9-9L16.4 118z" fill="#fff"/></svg>